<svg xmlns="http://www.w3.org/2000/svg" viewBox="0 0 626 133"><defs><style>.cls-1,.cls-4{fill:#191970;}.cls-2{fill:#ffc533;}.cls-3{fill:#ffc933;}.cls-4{font-size:50px;font-family:Raleway-Bold, Raleway;font-weight:700;}.cls-5{letter-spacing:-0.01em;}.cls-6{letter-spacing:0em;}</style></defs><g id="Logo_1" data-name="Logo 1"><path class="cls-1" d="M121.93,35.47v.11c0,1.91-.06,3.82-.19,5.71,0,.24,0,.48,0,.72-.12,1.67-.3,3.33-.52,5-.06.47-.12.94-.19,1.4-.21,1.43-.47,2.86-.75,4.26-.13.65-.27,1.29-.41,1.93-1.64-1.21-3.34-2.36-5.09-3.42h0c-.88-.54-1.78-1.06-2.69-1.56h0c-.85-.46-1.71-.91-2.58-1.34-1.76-.87-3.56-1.67-5.41-2.38-1-.4-2-.77-3-1.11q-1.23-.42-2.46-.78c-1.4-.41-2.8-.78-4.23-1.1-.45-.11-.9-.2-1.36-.3-1.56-.32-3.14-.58-4.74-.8l-.91-.11c-1.63-.2-3.29-.33-5-.41l-.74,0c-.84,0-1.67-.05-2.52-.05s-1.68,0-2.51.05l-.74,0c-1.68.08-3.33.21-5,.41l-.91.11c-1.6.22-3.18.48-4.74.8l-1.35.3c-1.43.32-2.84.69-4.23,1.1q-1.24.36-2.46.78c-1,.34-2,.71-3,1.11-1.84.71-3.65,1.51-5.41,2.38,0-.26-.09-.51-.12-.77h0c-.28-1.71-.5-3.44-.65-5.19q2.34-1.09,4.77-2h0l.78-.29c1.78-.66,3.59-1.24,5.43-1.76l.2-.05q2.77-.78,5.64-1.34h0q2.82-.54,5.7-.87h0c1.88-.22,3.79-.37,5.71-.44,1,0,1.9-.06,2.86-.06s1.91,0,2.86.06c1.92.07,3.83.22,5.71.44h0q2.88.33,5.7.87h0q2.86.55,5.64,1.34l.2.05c1.84.52,3.65,1.1,5.43,1.76l.78.29h0c1.62.61,3.22,1.28,4.78,2s3.3,1.59,4.89,2.48h0l.55.31c.25-2.06.41-4.14.5-6.24q-2.76-1.45-5.64-2.68h0q-2.76-1.18-5.63-2.16l-.1,0c-1.79-.6-3.61-1.15-5.46-1.63L99,32.22q-2.59-.67-5.27-1.17L93.16,31c-1.69-.3-3.39-.55-5.12-.74l-.7-.08c-1.65-.17-3.33-.29-5-.35-.26,0-.53,0-.79,0-.82,0-1.66,0-2.49,0s-1.66,0-2.49,0q-.39,0-.78,0c-1.69.06-3.36.18-5,.35l-.7.08c-1.72.19-3.43.44-5.12.74l-.54.09c-1.78.33-3.53.72-5.27,1.17l-.32.08c-1.85.48-3.67,1-5.46,1.63l-.1,0q-2.86,1-5.64,2.16h0Q44.72,37.37,42,38.82q.12,3.15.49,6.24a.17.17,0,0,0,0,.07q.36,3,.94,6h0Q44,54,44.73,56.79a1.87,1.87,0,0,0,.07.22q.73,2.66,1.65,5.25l.15.42q.88,2.49,1.95,4.9l.24.55q1.05,2.36,2.24,4.62l.32.61c.8,1.49,1.65,3,2.54,4.39l.37.59q1.38,2.16,2.88,4.24l.36.49q1.56,2.12,3.26,4.13l.3.34c1.19,1.4,2.42,2.75,3.71,4.06l.16.17q2,2.06,4.22,4h0c1.52,1.33,3.09,2.61,4.7,3.82l.06,0c1.67,1.26,3.38,2.44,5.14,3.56.66.42,1.31.82,2,1.22h0l1.66,1h0q.92.52,1.86,1l-.62.42q-2.4,1.61-4.9,3c-1.66-1-3.3-2-4.89-3l-.62-.42c-1.37-.94-2.72-1.92-4-2.93-.37-.29-.75-.58-1.11-.88q-1.7-1.35-3.31-2.78l-1.46-1.32c-.93-.86-1.83-1.74-2.72-2.64-.56-.57-1.12-1.15-1.66-1.73-.77-.83-1.53-1.67-2.26-2.52-.6-.69-1.18-1.38-1.75-2.09s-1.28-1.61-1.9-2.44-1.17-1.57-1.73-2.38-1.1-1.6-1.63-2.42-1.09-1.71-1.61-2.58-1-1.64-1.44-2.48-1-1.78-1.43-2.69-.87-1.73-1.28-2.62S43.4,70.1,43,69.2s-.79-1.9-1.16-2.86-.64-1.71-.94-2.57q-.56-1.59-1.05-3.21c-.23-.77-.45-1.54-.66-2.32-.34-1.21-.65-2.43-.92-3.67-.15-.64-.29-1.28-.41-1.93-.29-1.4-.54-2.83-.75-4.26-.07-.46-.14-.93-.2-1.4-.22-1.64-.39-3.3-.52-5,0-.24,0-.48,0-.72-.12-1.89-.18-3.8-.18-5.71v-.11q2.45-1.41,5-2.67h0l.79-.38q2.17-1.05,4.43-2,.72-.3,1.44-.57c1.3-.52,2.61-1,3.94-1.44l2-.64c1.17-.36,2.34-.69,3.53-1,.81-.22,1.63-.42,2.45-.61,1.06-.24,2.12-.46,3.2-.67q1.38-.27,2.79-.48c1-.16,2-.29,3-.41s2-.23,3-.31,1.88-.14,2.82-.19S76.62,24,77.67,24h2.77c1,0,2.09,0,3.13.11s1.89.11,2.82.19,2,.19,3,.31,2,.25,3,.41,1.87.3,2.8.48,2.14.43,3.19.67c.82.19,1.64.39,2.45.61,1.19.31,2.36.64,3.53,1l2,.64c1.33.45,2.65.92,4,1.44.48.18,1,.37,1.43.57q2.25.93,4.44,2l.78.38h0C118.63,33.64,120.3,34.53,121.93,35.47Z"/><path class="cls-2" d="M92.23,84.38l0,0q-1.92,2.19-4,4.24l-.09.09q-2.07,2-4.29,3.87l-.59.49q-2,1.67-4.17,3.18c-1.42-1-2.82-2.07-4.17-3.18l-.59-.49Q72.07,90.78,70,88.75l-.1-.09q-2.09-2.05-4-4.24l0,0,.47-.24h0a28.11,28.11,0,0,1,5.21-2q1.5,1.62,3.1,3.15c.61.58,1.24,1.15,1.87,1.71.82.73,1.66,1.43,2.51,2.11.86-.68,1.69-1.38,2.51-2.11.64-.56,1.26-1.13,1.87-1.71q1.6-1.53,3.11-3.15a28.28,28.28,0,0,1,5.2,2h0Z"/><path class="cls-1" d="M108.13,82.25c-.54.82-1.08,1.62-1.64,2.42s-1.13,1.6-1.73,2.38-1.25,1.64-1.9,2.44-1.15,1.4-1.74,2.09c-.74.85-1.49,1.69-2.26,2.52-.55.58-1.1,1.16-1.67,1.73-.88.9-1.79,1.78-2.72,2.64L93,99.79c-1.07.95-2.18,1.88-3.3,2.78-1.29-.63-2.57-1.28-3.82-2h0c-.57-.31-1.13-.63-1.69-1l.06,0c1.62-1.21,3.18-2.49,4.7-3.82h0q2.19-1.92,4.22-4l.17-.17q1.92-2,3.71-4.06l.29-.34q1.69-2,3.26-4.13c-.89-.72-1.82-1.4-2.78-2h0c-.64-.42-1.29-.81-1.95-1.19-.43-.24-.87-.48-1.31-.7a35,35,0,0,0-4-1.73,34.17,34.17,0,0,0-6.09-1.54A32.12,32.12,0,0,0,81,75.51c-.65,0-1.31-.06-2-.06s-1.31,0-2,.06a32.31,32.31,0,0,0-3.44.37,33.39,33.39,0,0,0-10.08,3.26h0c-.45.22-.89.46-1.32.7C61.11,78.34,60,76.79,59,75.19l0-.07c.57-.33,1.16-.65,1.75-1h0q1.68-.85,3.42-1.56a39,39,0,0,1,5.67-1.8,40.74,40.74,0,0,1,4.59-.8c.57-.06,1.15-.12,1.74-.16,1-.07,1.92-.1,2.89-.1s1.94,0,2.89.1c.59,0,1.17.1,1.75.16a40.74,40.74,0,0,1,4.59.8,38.84,38.84,0,0,1,5.66,1.8q1.75.7,3.42,1.56h0q.88.47,1.74,1c.56.32,1.11.66,1.65,1h0a37.48,37.48,0,0,1,3.08,2.21A41.79,41.79,0,0,1,108.13,82.25Z"/><path class="cls-3" d="M118.23,60.56c-.33,1.08-.67,2.15-1,3.21-.3.86-.62,1.72-1,2.57a56.37,56.37,0,0,0-4.74-3.66c-.74-.51-1.49-1-2.26-1.48h0c-.88-.55-1.79-1.08-2.71-1.58l-.46-.25h0c-1.53-.82-3.11-1.57-4.72-2.26a55.65,55.65,0,0,0-5.38-2c-.9-.28-1.81-.54-2.74-.77s-1.87-.46-2.81-.65c-1.49-.3-3-.54-4.52-.72l-1.24-.13q-2.57-.26-5.19-.27h-.82q-2.62,0-5.19.27L72.22,53c-1.53.18-3,.42-4.52.72-1,.19-1.89.41-2.82.65s-1.84.49-2.74.77a55.47,55.47,0,0,0-5.37,2q.76,2.32,1.69,4.56l.33.8a49.24,49.24,0,0,1,5.38-2c1.36-.41,2.74-.77,4.15-1.07l1.5-.29a51.3,51.3,0,0,1,6-.73h0c1.08-.06,2.15-.1,3.24-.1s2.17,0,3.24.1h0a51.13,51.13,0,0,1,6,.73l1.51.29c1.4.3,2.79.66,4.14,1.07a50.17,50.17,0,0,1,5.39,2c1.31.56,2.59,1.17,3.84,1.84h0c.42.23.84.46,1.25.7.68.38,1.34.77,2,1.18h0c1,.62,1.94,1.27,2.87,1.94a53.42,53.42,0,0,1,4.58,3.75c-.42.89-.85,1.76-1.29,2.62s-.94,1.81-1.43,2.69a44.77,44.77,0,0,0-4.42-3.83c-1-.77-2-1.5-3.13-2.19-.54-.35-1.09-.68-1.65-1s-1.16-.66-1.75-1c-1.09-.57-2.22-1.1-3.37-1.59h0a47.6,47.6,0,0,0-5.46-1.91,44.15,44.15,0,0,0-4.78-1.06l-1.09-.17A45.91,45.91,0,0,0,79.06,64h0a45.8,45.8,0,0,0-6.46.45l-1.1.17a45.23,45.23,0,0,0-4.78,1.06,48.27,48.27,0,0,0-5.46,1.91h0c-1.14.49-2.27,1-3.36,1.59h0c-.59.31-1.17.63-1.75,1-.87-1.66-1.69-3.36-2.44-5.1l0-.07q-1.12-2.62-2.06-5.35l0,0q-.94-2.74-1.66-5.6,2.56-1.35,5.28-2.46c1.76-.73,3.57-1.37,5.42-1.94l.55-.16h0q2.45-.73,5-1.26l2.07-.39c1.19-.21,2.38-.38,3.58-.52.9-.1,1.81-.19,2.72-.25h0c1-.07,2-.12,3.07-.15h2.9c1,0,2.06.08,3.07.15s1.82.15,2.72.25c1.21.14,2.4.31,3.58.52.7.12,1.39.25,2.08.39q2.52.53,5,1.26h0l.56.16c1.84.57,3.65,1.21,5.42,1.94s3.56,1.56,5.28,2.46l.82.44h0c1,.54,2,1.11,2.93,1.7l0,0h0l1.29.82Q115.86,58.68,118.23,60.56Z"/><text class="cls-4" transform="translate(136.01 85.38)"><tspan class="cls-5">R</tspan><tspan x="33.35" y="0">ichmond </tspan><tspan class="cls-6" x="255.5" y="0">C</tspan><tspan x="288.75" y="0">ollege</tspan></text></g></svg>